<?xml version="1.0" encoding="utf-8"?>
<!-- Generator: Adobe Illustrator 26.0.3, SVG Export Plug-In . SVG Version: 6.00 Build 0)  -->
<svg version="1.1" id="Layer_1" xmlns="http://www.w3.org/2000/svg" xmlns:xlink="http://www.w3.org/1999/xlink" x="0px" y="0px"
	 viewBox="0 0 888.2 230.9" style="enable-background:new 0 0 888.2 230.9;" xml:space="preserve">
<style type="text/css">
	.st0{fill:#231F20;}
</style>
<path class="st0" d="M79.6,37.8c31.8,0,57.1,25.5,57.1,66.4S111.4,171,79.6,171c-19,0-32.7-9-39.9-20v79.8H0V39.7h39.7V58
	C46.9,46.6,60.6,37.8,79.6,37.8z M67.8,72.4c-14.9,0-28.3,11.4-28.3,32s13.5,32,28.3,32c15.1,0,28.5-11.6,28.5-32.3
	S82.8,72.4,67.8,72.4z"/>
<path class="st0" d="M157.5,39.7h39.7v129.5h-39.7V39.7z"/>
<path class="st0" d="M277.8,133.2l-20.9,36h-42.9l42.7-66.1l-43.9-63.4h44.6l24.8,35.7L303,39.7h42.9l-43.4,65.2l44.6,64.3h-44.5
	L277.8,133.2z"/>
<path class="st0" d="M411.6,37.8c19.3,0,33,8.8,39.9,20.2V39.7h39.7v129.5h-39.7v-18.3c-7.2,11.4-20.9,20.2-40.1,20.2
	c-31.6,0-56.9-26-56.9-66.8S379.8,37.8,411.6,37.8z M423.2,72.4c-14.9,0-28.3,11.1-28.3,31.8s13.5,32.3,28.3,32.3
	c15.1,0,28.3-11.4,28.3-32S438.3,72.4,423.2,72.4z"/>
<path class="st0" d="M550.1,39.7l28.1,92.4l28.1-92.4h42.2l-45.9,129.5h-49L507.7,39.7H550.1z"/>
<path class="st0" d="M665.2,39.7h39.7v129.5h-39.7V39.7z"/>
<polygon class="st0" points="776.7,129.5 825.8,71.2 825.8,39.7 727,39.7 727,72.4 780.3,72.4 726.5,137.6 726.5,169.1 827,169.1 
	827,136.4 827,129.5 "/>
<rect x="117.9" class="st0" width="39.7" height="39.7"/>
<rect x="625.6" y="169.1" class="st0" width="39.7" height="39.7"/>
<rect x="848.6" y="129.5" class="st0" width="39.7" height="39.7"/>
</svg>
